<svg aria-hidden="true" style="position: absolute; width: 0; height: 0; overflow: hidden;" version="1.1" xmlns="http://www.w3.org/2000/svg" xmlns:xlink="http://www.w3.org/1999/xlink">
    <defs>
        <symbol id="icon-down" viewBox="0 0 32 32">
            <path d="M13.5 0h5c0.831 0 1.5 0.669 1.5 1.5v10.5h5.481c1.112 0 1.669 1.344 0.881 2.131l-9.506 9.513c-0.469 0.469-1.238 0.469-1.706 0l-9.519-9.513c-0.787-0.787-0.231-2.131 0.881-2.131h5.488v-10.5c0-0.831 0.669-1.5 1.5-1.5zM32 23.5v7c0 0.831-0.669 1.5-1.5 1.5h-29c-0.831 0-1.5-0.669-1.5-1.5v-7c0-0.831 0.669-1.5 1.5-1.5h9.169l3.062 3.063c1.256 1.256 3.281 1.256 4.538 0l3.062-3.063h9.169c0.831 0 1.5 0.669 1.5 1.5zM24.25 29c0-0.688-0.563-1.25-1.25-1.25s-1.25 0.563-1.25 1.25c0 0.688 0.563 1.25 1.25 1.25s1.25-0.563 1.25-1.25zM28.25 29c0-0.688-0.563-1.25-1.25-1.25s-1.25 0.563-1.25 1.25c0 0.688 0.563 1.25 1.25 1.25s1.25-0.563 1.25-1.25z"></path>
        </symbol>
        <symbol id="icon-size" viewBox="0 0 32 32">
            <path d="M30.205 28.642c-0.050 0.907-0.446 1.761-1.107 2.386s-1.535 0.973-2.444 0.973h-21.717c-0.909 0-1.783-0.348-2.443-0.973s-1.056-1.478-1.107-2.386l-1.382-24.889c-0.027-0.483 0.045-0.966 0.211-1.42s0.423-0.869 0.756-1.221c0.332-0.351 0.733-0.631 1.177-0.822s0.922-0.29 1.406-0.29h24.484c0.483-0 0.962 0.099 1.406 0.29s0.845 0.471 1.177 0.822 0.59 0.767 0.756 1.221c0.166 0.454 0.238 0.937 0.211 1.42l-1.383 24.889zM24.902 10.47c0.729-0.48 0.912-1.432 0.314-2.052-1.015-1.047-2.201-1.913-3.507-2.562-1.813-0.899-3.805-1.381-5.829-1.411-2.026-0.034-4.034 0.386-5.876 1.228-1.329 0.607-2.544 1.435-3.596 2.45-0.62 0.601-0.471 1.557 0.241 2.060l3.833 2.708c0.711 0.503 1.714 0.34 2.451-0.129 0.19-0.121 0.388-0.228 0.593-0.322 0.654-0.299 1.364-0.458 2.084-0.465l3.016-3.468c0.155-0.178 0.374-0.287 0.609-0.304 0.116-0.008 0.233 0.007 0.344 0.044s0.213 0.095 0.301 0.172c0.088 0.077 0.16 0.17 0.212 0.274s0.083 0.218 0.091 0.335c0.008 0.116-0.007 0.233-0.044 0.344s-0.095 0.213-0.172 0.301l-2.34 2.689c0.317 0.131 0.619 0.294 0.903 0.487 0.72 0.492 1.716 0.684 2.445 0.204l3.927-2.586z"></path>
        </symbol>
        <symbol id="icon-lang" viewBox="0 0 32 32">
            <path d="M15.556 31.111c-2.126 0-4.135-0.409-6.028-1.226-1.893-0.816-3.545-1.931-4.958-3.344-1.413-1.413-2.528-3.065-3.344-4.958-0.817-1.893-1.226-3.902-1.226-6.028 0-2.152 0.409-4.167 1.226-6.046 0.816-1.88 1.931-3.526 3.344-4.939 1.412-1.413 3.065-2.529 4.958-3.346 1.893-0.816 3.902-1.224 6.028-1.224 2.152 0 4.167 0.408 6.046 1.224 1.88 0.817 3.526 1.933 4.939 3.346 1.413 1.412 2.528 3.059 3.344 4.939 0.817 1.879 1.226 3.895 1.226 6.046 0 2.126-0.409 4.135-1.226 6.028-0.816 1.893-1.931 3.545-3.344 4.958s-3.059 2.528-4.939 3.344c-1.879 0.817-3.895 1.226-6.046 1.226zM15.556 27.922c0.674-0.933 1.257-1.906 1.75-2.917s0.894-2.087 1.205-3.228h-5.911c0.311 1.141 0.713 2.217 1.206 3.228s1.076 1.983 1.75 2.917zM11.511 27.3c-0.467-0.856-0.875-1.744-1.224-2.665-0.351-0.92-0.642-1.872-0.876-2.858h-4.589c0.752 1.296 1.691 2.424 2.819 3.383 1.128 0.959 2.418 1.672 3.87 2.139zM19.6 27.3c1.452-0.467 2.741-1.18 3.869-2.139 1.128-0.959 2.068-2.087 2.82-3.383h-4.589c-0.233 0.985-0.525 1.938-0.874 2.858-0.351 0.921-0.759 1.809-1.226 2.665zM3.5 18.667h5.289c-0.078-0.519-0.136-1.031-0.176-1.537-0.038-0.505-0.058-1.030-0.058-1.574s0.019-1.069 0.058-1.574c0.039-0.506 0.098-1.018 0.176-1.537h-5.289c-0.13 0.519-0.227 1.031-0.292 1.537-0.064 0.505-0.096 1.030-0.096 1.574s0.032 1.069 0.096 1.574c0.065 0.506 0.163 1.018 0.292 1.537zM11.9 18.667h7.311c0.078-0.519 0.136-1.031 0.176-1.537 0.038-0.505 0.057-1.030 0.057-1.574s-0.019-1.069-0.057-1.574c-0.039-0.506-0.098-1.018-0.176-1.537h-7.311c-0.078 0.519-0.136 1.031-0.174 1.537-0.039 0.505-0.059 1.030-0.059 1.574s0.020 1.069 0.059 1.574c0.038 0.506 0.096 1.018 0.174 1.537zM22.322 18.667h5.289c0.13-0.519 0.227-1.031 0.293-1.537 0.064-0.505 0.096-1.030 0.096-1.574s-0.032-1.069-0.096-1.574c-0.065-0.506-0.163-1.018-0.293-1.537h-5.289c0.078 0.519 0.136 1.031 0.174 1.537 0.039 0.505 0.059 1.030 0.059 1.574s-0.020 1.069-0.059 1.574c-0.038 0.506-0.096 1.018-0.174 1.537zM21.7 9.333h4.589c-0.752-1.296-1.692-2.424-2.82-3.383-1.127-0.959-2.417-1.672-3.869-2.139 0.467 0.856 0.875 1.743 1.226 2.663 0.349 0.921 0.641 1.874 0.874 2.859zM12.6 9.333h5.911c-0.311-1.141-0.713-2.217-1.205-3.228s-1.076-1.983-1.75-2.917c-0.674 0.933-1.257 1.906-1.75 2.917s-0.895 2.087-1.206 3.228zM4.822 9.333h4.589c0.233-0.985 0.525-1.938 0.876-2.859 0.349-0.92 0.758-1.808 1.224-2.663-1.452 0.467-2.742 1.18-3.87 2.139-1.127 0.959-2.067 2.087-2.819 3.383z"></path>
        </symbol>
        <symbol id="icon-os" viewBox="0 0 32 32">
            <path d="M28.718 1.231h-25.846c-0.761 0.002-1.49 0.306-2.028 0.844s-0.841 1.267-0.844 2.028v17.231c0.002 0.761 0.306 1.49 0.844 2.028s1.267 0.841 2.028 0.844h10.051v2.872h-2.872v2.872h11.487v-2.872h-2.872v-2.872h10.051c0.761-0.002 1.49-0.306 2.028-0.844s0.841-1.267 0.844-2.028v-17.231c-0.002-0.761-0.306-1.49-0.844-2.028s-1.267-0.841-2.028-0.844zM14.003 17.982h-0.001l-6.821-6.82 2.032-2.029 4.79 4.79 8.378-8.38 2.032 2.032-10.41 10.407z"></path>
        </symbol>
        <symbol id="icon-data" viewBox="0 0 32 32">
            <path d="M30 28v-21.778c0-1.716-1.395-3.111-3.111-3.111h-3.111v-3.111h-3.111v3.111h-9.333v-3.111h-3.111v3.111h-3.111c-1.716 0-3.111 1.395-3.111 3.111v21.778c0 1.716 1.395 3.111 3.111 3.111h21.778c1.716 0 3.111-1.395 3.111-3.111zM11.333 24.889h-3.111v-3.111h3.111v3.111zM11.333 18.667h-3.111v-3.111h3.111v3.111zM17.556 24.889h-3.111v-3.111h3.111v3.111zM17.556 18.667h-3.111v-3.111h3.111v3.111zM23.778 24.889h-3.111v-3.111h3.111v3.111zM23.778 18.667h-3.111v-3.111h3.111v3.111zM26.889 10.889h-21.778v-3.111h21.778v3.111z"></path>
        </symbol>
        <symbol id="icon-author" viewBox="0 0 32 32">
            <path d="M27.719 25.684c1.608-1.935 2.727-4.229 3.261-6.688s0.468-5.011-0.192-7.439c-0.66-2.428-1.896-4.662-3.602-6.511s-3.833-3.261-6.2-4.115c-2.367-0.854-4.905-1.125-7.399-0.791s-4.871 1.264-6.93 2.711-3.739 3.369-4.897 5.602c-1.159 2.234-1.763 4.714-1.761 7.23 0.001 3.658 1.29 7.199 3.641 10.002l-0.022 0.019c0.078 0.094 0.168 0.175 0.249 0.268 0.101 0.115 0.209 0.224 0.314 0.336 0.314 0.34 0.636 0.668 0.974 0.974 0.103 0.094 0.209 0.181 0.314 0.271 0.358 0.309 0.727 0.603 1.109 0.876 0.049 0.034 0.094 0.077 0.143 0.112v-0.013c2.623 1.846 5.752 2.837 8.96 2.837s6.337-0.991 8.96-2.837v0.013c0.049-0.035 0.093-0.078 0.143-0.112 0.381-0.274 0.75-0.567 1.109-0.876 0.104-0.090 0.211-0.178 0.314-0.271 0.338-0.308 0.661-0.634 0.974-0.974 0.104-0.112 0.212-0.221 0.314-0.336 0.079-0.093 0.17-0.174 0.249-0.269l-0.025-0.018zM15.68 6.723c0.997 0 1.971 0.296 2.8 0.849s1.475 1.341 1.856 2.262 0.481 1.934 0.287 2.912c-0.194 0.978-0.674 1.876-1.379 2.581s-1.603 1.185-2.58 1.379-1.991 0.095-2.912-0.287c-0.921-0.381-1.708-1.027-2.262-1.856s-0.849-1.803-0.849-2.8c0-1.337 0.531-2.619 1.476-3.564s2.227-1.476 3.564-1.476zM6.728 25.684c0.019-1.471 0.617-2.874 1.664-3.908s2.458-1.613 3.929-1.614h6.72c1.471 0.001 2.882 0.58 3.929 1.614s1.644 2.437 1.664 3.908c-2.456 2.213-5.646 3.438-8.952 3.438s-6.496-1.225-8.952-3.438z"></path>
        </symbol>
        <symbol id="icon-license" viewBox="0 0 24 32">
            <path d="M14.586 0h-10.586c-1.061 0-2.078 0.421-2.828 1.172s-1.172 1.768-1.172 2.828v24c0 1.061 0.421 2.078 1.172 2.828s1.768 1.172 2.828 1.172h16c1.061 0 2.078-0.421 2.828-1.172s1.172-1.768 1.172-2.828v-18.586c-0-0.53-0.211-1.039-0.586-1.414l-7.414-7.414c-0.375-0.375-0.884-0.586-1.414-0.586v0zM15 7v-4l6 6h-4c-0.53 0-1.039-0.211-1.414-0.586s-0.586-0.884-0.586-1.414zM7 6v-2h-2v-2h3v2h2v2h-2v2h2v2h-2v2h2v2h-3v-2h-2v-2h2v-2h-2v-2h2zM7 15h2c0.53 0 1.039 0.211 1.414 0.586s0.586 0.884 0.586 1.414v1.876l0.8 3.198c0.1 0.4 0.073 0.821-0.076 1.206s-0.413 0.714-0.756 0.942l-1.86 1.24c-0.328 0.219-0.714 0.336-1.109 0.336s-0.781-0.117-1.109-0.336l-1.86-1.24c-0.343-0.229-0.607-0.558-0.755-0.943s-0.175-0.805-0.075-1.206l0.8-3.198v-1.876c0-0.53 0.211-1.039 0.586-1.414s0.884-0.586 1.414-0.586z"></path>
        </symbol>
        <symbol id="icon-app" viewBox="0 0 32 32">
            <path d="M27.511 7.864c0.21 0.21 0.329 0.493 0.329 0.791v21.584c0 0.62-0.5 1.12-1.12 1.12h-22.4c-0.619 0-1.12-0.5-1.12-1.12v-29.12c0-0.62 0.5-1.12 1.12-1.12h14.864c0.297 0 0.584 0.119 0.794 0.329l7.532 7.535zM25.257 9.17l-6.587-6.587v6.587h6.587zM8.8 14.63c-0.074 0-0.146 0.029-0.198 0.082s-0.082 0.124-0.082 0.198v1.68c0 0.074 0.030 0.146 0.082 0.198s0.124 0.082 0.198 0.082h13.44c0.074 0 0.146-0.030 0.198-0.082s0.082-0.124 0.082-0.198v-1.68c0-0.074-0.030-0.145-0.082-0.198s-0.124-0.082-0.198-0.082h-13.44zM8.8 19.39c-0.074 0-0.146 0.030-0.198 0.082s-0.082 0.124-0.082 0.198v1.68c0 0.074 0.030 0.145 0.082 0.198s0.124 0.082 0.198 0.082h6.44c0.074 0 0.146-0.029 0.198-0.082s0.082-0.124 0.082-0.198v-1.68c0-0.074-0.030-0.146-0.082-0.198s-0.124-0.082-0.198-0.082h-6.44z"></path>
        </symbol>
    </defs>
</svg>